<?xml version="1.0" encoding="UTF-8" standalone="no"?>
<!DOCTYPE svg PUBLIC "-//W3C//DTD SVG 1.1//EN"
 "http://www.w3.org/Graphics/SVG/1.1/DTD/svg11.dtd">
<!-- Generated by graphviz version 2.40.1 (20161225.0304)
 -->
<!-- Title: name Pages: 1 -->
<svg width="490pt" height="451pt"
 viewBox="0.00 0.00 489.53 451.40" xmlns="http://www.w3.org/2000/svg" xmlns:xlink="http://www.w3.org/1999/xlink">
<g id="graph0" class="graph" transform="scale(1 1) rotate(0) translate(4 447.4)">
<title>name</title>
<polygon fill="#ffffff" stroke="transparent" points="-4,4 -4,-447.4 485.5257,-447.4 485.5257,4 -4,4"/>
<g id="clust1" class="cluster">
<title>cluster_thread</title>
<polygon fill="none" stroke="#000000" points="129.5257,-119.6 129.5257,-307.4 241.5257,-307.4 241.5257,-119.6 129.5257,-119.6"/>
<text text-anchor="middle" x="185.5257" y="-290.8" font-family="Times,serif" font-size="14.00" fill="#000000">threading.Thread</text>
</g>
<g id="clust2" class="cluster">
<title>cluster_crawler</title>
<polygon fill="none" stroke="#000000" points="275.5257,-8 275.5257,-84.8 473.5257,-84.8 473.5257,-8 275.5257,-8"/>
<text text-anchor="middle" x="374.5257" y="-68.2" font-family="Times,serif" font-size="14.00" fill="#000000">crawler.py</text>
</g>
<!-- main -->
<g id="node1" class="node">
<title>main</title>
<ellipse fill="none" stroke="#000000" cx="185.5257" cy="-425.4" rx="42.3375" ry="18"/>
<text text-anchor="middle" x="185.5257" y="-421.2" font-family="Times,serif" font-size="14.00" fill="#000000">main.py</text>
</g>
<!-- read -->
<g id="node2" class="node">
<title>read</title>
<ellipse fill="none" stroke="#000000" cx="185.5257" cy="-352.4" rx="110.0469" ry="18"/>
<text text-anchor="middle" x="185.5257" y="-348.2" font-family="Times,serif" font-size="14.00" fill="#000000">Read ./images_list/$FILE</text>
</g>
<!-- main&#45;&gt;read -->
<g id="edge1" class="edge">
<title>main&#45;&gt;read</title>
<path fill="none" stroke="#000000" d="M185.5257,-407.3551C185.5257,-399.2828 185.5257,-389.5764 185.5257,-380.5817"/>
<polygon fill="#000000" stroke="#000000" points="189.0258,-380.4903 185.5257,-370.4904 182.0258,-380.4904 189.0258,-380.4903"/>
</g>
<!-- start -->
<g id="node3" class="node">
<title>start</title>
<ellipse fill="none" stroke="#000000" cx="185.5257" cy="-256.6" rx="27.8228" ry="18"/>
<text text-anchor="middle" x="185.5257" y="-252.4" font-family="Times,serif" font-size="14.00" fill="#000000">start</text>
</g>
<!-- read&#45;&gt;start -->
<g id="edge2" class="edge">
<title>read&#45;&gt;start</title>
<path fill="none" stroke="#000000" d="M185.5257,-334.3808C185.5257,-320.5527 185.5257,-301.193 185.5257,-285.2477"/>
<polygon fill="#000000" stroke="#000000" points="189.0258,-284.8641 185.5257,-274.8642 182.0258,-284.8642 189.0258,-284.8641"/>
</g>
<!-- run -->
<g id="node4" class="node">
<title>run</title>
<ellipse fill="none" stroke="#000000" cx="185.5257" cy="-145.6" rx="27" ry="18"/>
<text text-anchor="middle" x="185.5257" y="-141.4" font-family="Times,serif" font-size="14.00" fill="#000000">run</text>
</g>
<!-- start&#45;&gt;run -->
<g id="edge3" class="edge">
<title>start&#45;&gt;run</title>
<path fill="none" stroke="#000000" d="M185.5257,-238.2706C185.5257,-220.8373 185.5257,-194.3482 185.5257,-174.1489"/>
<polygon fill="#000000" stroke="#000000" points="189.0258,-173.9566 185.5257,-163.9566 182.0258,-173.9567 189.0258,-173.9566"/>
</g>
<!-- write -->
<g id="node5" class="node">
<title>write</title>
<ellipse fill="none" stroke="#000000" cx="132.5257" cy="-34" rx="132.5514" ry="18"/>
<text text-anchor="middle" x="132.5257" y="-29.8" font-family="Times,serif" font-size="14.00" fill="#000000">write ./results/words&#45;$FILE.list</text>
</g>
<!-- run&#45;&gt;write -->
<g id="edge4" class="edge">
<title>run&#45;&gt;write</title>
<path fill="none" stroke="#000000" d="M177.2444,-128.1625C168.7494,-110.2747 155.4129,-82.1928 145.5124,-61.3456"/>
<polygon fill="#000000" stroke="#000000" points="148.5515,-59.5861 141.1,-52.0545 142.2283,-62.5891 148.5515,-59.5861"/>
</g>
<!-- resolve_images_info -->
<g id="node6" class="node">
<title>resolve_images_info</title>
<ellipse fill="none" stroke="#000000" cx="374.5257" cy="-34" rx="91.4732" ry="18"/>
<text text-anchor="middle" x="374.5257" y="-29.8" font-family="Times,serif" font-size="14.00" fill="#000000">resolve_images_info</text>
</g>
<!-- run&#45;&gt;resolve_images_info -->
<g id="edge5" class="edge">
<title>run&#45;&gt;resolve_images_info</title>
<path fill="none" stroke="#000000" d="M205.752,-133.6568C236.8727,-115.2808 297.025,-79.7623 336.4695,-56.4713"/>
<polygon fill="#000000" stroke="#000000" points="338.6999,-59.219 345.5312,-51.1206 335.1407,-53.1913 338.6999,-59.219"/>
<text text-anchor="middle" x="313.7547" y="-97" font-family="Times,serif" font-size="14.00" fill="#000000">Get dockerfile</text>
</g>
</g>
</svg>
